<?xml version="1.0" encoding="utf-8"?>
<!-- Generator: Adobe Illustrator 23.1.1, SVG Export Plug-In . SVG Version: 6.00 Build 0)  -->
<svg version="1.1" id="Layer_1" xmlns="http://www.w3.org/2000/svg" xmlns:xlink="http://www.w3.org/1999/xlink" x="0px" y="0px"
	 viewBox="0 0 152.46 152.46" style="enable-background:new 0 0 152.46 152.46;" xml:space="preserve">
<style type="text/css">
	.st0{fill:#EFEFEF;}
	.st1{fill:#58A454;}
	.st2{fill:#E5DAC4;}
	.st3{fill:#E05E34;}
</style>
<g>
	<polygon class="st0" points="142.18,114.47 76.09,152.47 10.13,114.23 10.28,37.99 76.37,-0.01 142.33,38.23 	"/>
	<g>
		<path class="st1" d="M70.65,34.82c0.02-0.23,0.17-0.94,0.19-1.18c0.3-1.56,0.12-2.67,0.91-3.88c1.45-2.22,3.72-1.52,5.75-1.55
			c2.49-0.04,3.1,0.82,2.19,3.05c-1.27,3.15-2.64,6.26-3.93,9.4c-0.19,0.47-0.64,1.12,0.04,1.47c0.6,0.31,0.8-0.42,1.08-0.78
			c1.1-1.41,2.15-2.86,3.26-4.27c1.36-1.74,3.24-2.32,5.27-1.68c2.6,0.81,2.85,1.78,0.89,3.72c-4.19,4.12-8.4,8.22-12.62,12.31
			c-2.97,2.88-5.36,2.87-8.35-0.05c-2.44-2.38-4.84-4.79-7.25-7.19c-1.93-1.92-3.86-3.84-5.79-5.76c-0.84-0.84-1.04-1.71,0.04-2.49
			c1.71-1.23,4.42-0.97,6.01,0.5c1.52,1.4,2.47,3.24,3.84,4.76c0.44,0.49,0.77,1.08,1.51,0.97c0.26-0.53-0.01-0.83-0.15-1.16
			c-1.41-3.43-2.86-6.84-4.21-10.29c-0.62-1.58-0.05-2.4,1.59-2.49c1.3-0.07,2.6-0.05,3.9,0c1.45,0.06,2.42,0.83,2.9,2.19
			c0.22,0.63,0.21,0.58,0.44,1.21c0.02,0.23,0.28,1.15,0.3,1.38c0.61,2.89,0.58,4.36,0.97,6.54C70.27,37.92,70.28,37.03,70.65,34.82
			z"/>
		<path class="st2" d="M88.71,53.83c-3.76,0-3.73,0-2.11-3.2c2.28-4.46,4.57-8.92,6.72-13.45c2.06-4.33,5.58-6.52,10.1-7.44
			c2.58-0.52,5.21-0.89,7.74-1.6c2.03-0.57,2.7,0.38,3.12,2.03c0.64,2.5-0.38,3.54-3.44,4.01c-2.83,0.44-5.68,0.95-8.39,1.83
			c-3.38,1.1-4.43,4.36-5.82,7.22c-1.57,3.24-3.07,6.52-4.69,9.73C91.22,54.4,89.73,53.64,88.71,53.83z"/>
		<path class="st3" d="M77.37,79.9c1.49,0.82,2.95,0.94,4.4,1c3.34,0.14,6.68,0.21,10.02,0.34c0.45,0.02,1.07-0.26,1.33,0.31
			c0.19,0.43-0.2,0.81-0.45,1.15c-4.33,5.79-8.65,11.59-13.03,17.34c-0.58,0.77-1.4,1.48-2.27,1.87c-1.39,0.63-1.66,1.71-1.67,2.98
			c-0.02,4.09-0.01,8.17-0.01,12.26c0,1.46,0.52,2.29,2.11,2.72c3.39,0.91,6.71,2.11,10.05,3.23c0.47,0.16,1.35,0.12,1.24,0.83
			c-0.1,0.64-0.9,0.5-1.44,0.5c-3.84,0.01-7.68,0.01-11.52,0.01c-6.07,0-12.14,0.01-18.2-0.01c-0.65,0-1.37,0.21-1.92-0.39
			c-0.02-0.64,0.52-0.62,0.88-0.74c3.69-1.23,7.37-2.5,11.1-3.63c1.13-0.34,1.49-0.92,1.49-1.97c-0.01-4.52-0.01-9.04,0-13.56
			c0-0.89-0.29-1.48-1.11-1.95c-3.09-1.73-4.75-4.8-6.72-7.54c-0.8-1.12,0.16-1.16,0.95-1.21c3.64-0.22,7.28-0.44,10.92-0.66
			c0.12-0.01,0.25-0.01,0.37-0.02c0.75-0.05,1.71-0.1,1.67-1.02c-0.03-0.63-1-0.54-1.57-0.59c-4.01-0.35-8.02-0.68-12.04-0.54
			c-2.32,0.08-4-0.57-5.43-2.64c-3.53-5.07-7.35-9.93-11.05-14.88c-0.33-0.44-0.79-0.87-0.45-1.48c0.3-0.52,0.88-0.38,1.35-0.37
			c4.03,0.04,8.03-0.34,12.03-0.73c0.48-0.05,1.3,0.21,1.25-0.67c-0.04-0.73-0.74-0.7-1.29-0.75c-4.81-0.4-9.61-0.85-14.44-0.69
			c-1.49,0.05-2.48-0.49-3.25-1.67c-0.91-1.4-2-2.69-2.44-4.34c-0.88-3.27,0.69-5.83,4.01-6.45c1.09-0.2,2.21-0.29,3.32-0.3
			c18.02-0.02,36.03-0.02,54.05,0c0.98,0,1.98,0.1,2.95,0.25c4.24,0.66,5.89,3.91,3.94,7.79c-1.51,3.01-3.85,5.44-5.73,8.19
			c-1.22,1.78-2.66,3.41-3.87,5.2c-0.71,1.04-1.52,1.43-2.77,1.43c-4.95,0-9.9,0.02-14.81,0.67C78.71,79.26,78.08,79.23,77.37,79.9z
			"/>
	</g>
</g>
</svg>
